<svg id="svg" version="1.1" xmlns="http://www.w3.org/2000/svg" xmlns:xlink="http://www.w3.org/1999/xlink" width="400" height="400" viewBox="0, 0, 400,400"><g id="svgg"><path id="path0" d="M196.574 87.051 C 154.328 89.674,125.880 117.013,112.283 168.056 L 111.172 172.224 111.975 172.409 C 112.987 172.642,124.137 173.961,127.593 174.256 L 130.185 174.477 131.206 172.835 C 135.003 166.728,143.541 169.476,145.340 177.384 C 146.831 183.941,146.037 187.147,143.114 186.365 C 139.766 185.470,138.962 186.096,137.448 190.777 C 136.739 192.969,134.920 195.556,134.087 195.556 C 132.385 195.556,130.010 189.466,130.003 185.083 C 129.999 182.836,130.004 182.838,122.407 182.255 C 119.148 182.005,115.065 181.562,113.333 181.272 C 108.783 180.508,109.079 180.384,108.608 183.241 C 108.382 184.616,107.613 189.157,106.901 193.333 C 103.252 214.716,101.477 237.321,100.881 270.016 L 100.627 283.922 106.147 284.929 C 156.975 294.207,175.416 275.356,171.474 218.148 C 170.781 208.080,168.853 187.225,168.513 186.111 C 167.545 182.940,167.414 155.844,168.332 148.787 C 171.401 125.194,182.110 115.923,206.287 115.927 C 227.200 115.931,237.639 122.725,242.410 139.440 C 244.810 147.846,245.787 163.863,244.603 175.370 L 244.413 177.222 248.320 177.106 C 253.210 176.960,253.311 177.037,253.401 180.993 C 253.437 182.586,253.342 184.264,253.190 184.722 C 252.973 185.375,253.059 185.567,253.586 185.608 C 255.062 185.722,249.987 186.225,247.011 186.260 L 243.836 186.296 242.651 199.722 C 239.589 234.414,240.034 249.381,244.511 262.201 C 252.064 283.829,272.141 291.276,306.007 285.014 C 308.802 284.497,311.287 284.074,311.529 284.074 C 312.351 284.074,311.455 249.680,310.163 231.667 C 308.808 212.769,305.172 185.898,303.524 182.593 C 303.270 182.083,302.861 180.500,302.615 179.074 C 298.912 157.582,289.232 134.257,277.818 119.324 C 259.184 94.943,233.540 84.756,196.574 87.051 M52.963 155.600 C 48.948 157.197,47.898 162.037,49.397 172.037 C 50.716 180.829,53.199 181.644,55.980 174.196 C 57.426 170.322,57.895 169.930,60.742 170.211 C 64.612 170.592,65.286 168.272,63.160 161.887 C 61.268 156.206,57.415 153.830,52.963 155.600 M58.796 162.342 C 61.753 163.220,61.865 163.395,60.637 165.218 C 58.831 167.898,56.883 167.331,54.617 163.464 C 53.027 160.751,53.244 160.693,58.796 162.342 M340.370 165.320 C 340.370 165.885,342.135 167.778,342.662 167.778 C 344.013 167.778,344.662 172.910,343.523 174.588 L 342.608 175.936 343.619 175.698 C 345.117 175.345,345.265 175.081,345.238 172.810 C 345.203 169.857,344.515 167.833,343.339 167.225 C 342.804 166.949,342.171 166.293,341.932 165.769 C 341.476 164.769,340.370 164.451,340.370 165.320 M262.723 165.598 C 263.701 166.044,264.445 167.513,265.341 170.768 C 266.173 173.794,266.628 174.074,270.713 174.074 L 274.146 174.074 275.806 172.613 C 280.682 168.321,289.192 169.955,290.725 175.478 C 293.505 185.487,284.307 192.806,276.469 186.823 C 274.836 185.577,274.636 185.521,272.006 185.591 C 268.460 185.685,268.383 185.768,267.592 190.370 C 267.225 192.509,266.741 194.451,266.517 194.685 C 265.872 195.361,263.838 195.675,263.767 195.108 C 263.734 194.845,263.541 193.463,263.337 192.037 C 263.133 190.611,262.548 185.444,262.037 180.556 C 261.527 175.667,260.883 170.370,260.606 168.786 C 260.153 166.193,260.163 165.870,260.700 165.556 C 261.476 165.103,261.644 165.106,262.723 165.598 M336.504 169.343 C 335.902 171.289,335.953 171.784,336.813 172.348 C 337.901 173.061,338.148 172.837,338.148 171.138 C 338.148 169.736,336.828 168.295,336.504 169.343 M329.839 170.825 C 329.294 172.612,329.339 173.094,330.112 173.720 C 331.168 174.575,331.481 174.333,331.481 172.660 C 331.481 171.223,330.166 169.754,329.839 170.825 M321.754 172.870 C 321.578 174.243,322.635 175.802,323.416 175.320 C 324.049 174.928,323.718 172.256,322.987 171.865 C 321.969 171.320,321.952 171.334,321.754 172.870 M314.651 173.047 C 314.126 174.735,314.209 175.608,314.946 176.124 C 316.117 176.944,316.296 176.806,316.296 175.089 C 316.296 173.467,315.016 171.877,314.651 173.047 M306.916 175.046 C 306.739 176.140,306.849 176.511,307.514 177.049 C 308.578 177.910,308.889 177.668,308.889 175.978 C 308.889 173.563,307.280 172.803,306.916 175.046 M285.762 176.381 C 285.224 178.109,285.324 178.895,286.151 179.436 C 287.359 180.228,287.407 180.188,287.407 178.422 C 287.407 176.800,286.127 175.211,285.762 176.381 M271.314 178.368 C 271.080 179.616,271.681 180.681,272.646 180.729 C 273.393 180.766,273.221 177.838,272.445 177.320 C 271.737 176.848,271.570 177.002,271.314 178.368 M278.412 178.241 C 278.278 179.091,278.418 179.648,278.888 180.138 C 279.759 181.043,280.370 180.626,280.370 179.126 C 280.370 176.958,278.732 176.217,278.412 178.241 M257.808 181.111 L 260.370 181.111 260.370 182.930 L 260.370 184.748 257.206 185.012 C 255.465 185.157,253.951 185.186,253.842 185.076 C 253.359 184.593,254.165 180.696,254.705 180.904 C 255.003 181.018,256.399 181.111,257.808 181.111 " stroke="none" fill="#0486fb" fill-rule="evenodd"></path><path id="path1" d="M195.349 116.833 C 183.400 118.690,175.815 124.871,171.464 136.296 C 170.434 138.999,171.112 138.228,172.441 135.185 C 175.748 127.610,182.383 121.731,190.185 119.460 C 191.407 119.104,192.824 118.668,193.333 118.491 C 195.716 117.663,208.846 117.259,214.444 117.842 C 220.604 118.483,228.435 121.290,231.239 123.860 C 231.701 124.283,232.653 125.139,233.354 125.763 C 236.542 128.595,240.449 134.745,241.518 138.615 C 241.757 139.478,242.020 139.999,242.102 139.772 C 242.600 138.392,238.809 130.499,235.859 126.778 C 228.998 118.119,212.746 114.130,195.349 116.833 M53.704 161.785 C 53.704 162.214,56.562 166.017,57.303 166.574 C 58.142 167.205,58.548 167.149,59.630 166.256 C 60.139 165.835,60.379 165.580,60.162 165.687 C 59.425 166.055,55.860 163.699,55.430 162.560 C 55.064 161.592,53.704 160.981,53.704 161.785 M56.111 162.329 C 59.150 164.457,60.455 164.965,60.995 164.231 C 61.487 163.563,61.396 163.481,59.556 162.924 C 56.043 161.860,55.244 161.722,56.111 162.329 M64.509 166.726 C 64.479 169.875,64.234 170.705,63.223 171.079 C 62.550 171.328,62.702 171.456,64.274 171.962 C 67.220 172.912,105.149 180.436,107.593 180.556 C 108.815 180.615,111.648 180.924,113.889 181.241 C 116.130 181.558,120.130 181.993,122.778 182.209 C 125.426 182.424,128.426 182.778,129.444 182.996 C 131.049 183.339,145.216 184.786,145.460 184.631 C 145.661 184.503,145.636 179.957,145.433 179.754 C 145.312 179.633,143.581 179.382,141.588 179.198 C 125.407 177.699,93.041 173.770,83.889 172.194 C 80.378 171.590,64.544 167.234,65.408 167.111 C 65.836 167.050,68.503 167.580,71.334 168.290 C 86.923 172.195,109.301 175.536,137.377 178.149 C 146.325 178.982,145.785 179.045,145.041 177.262 L 144.482 175.926 141.408 175.900 C 138.084 175.871,134.388 175.535,130.000 174.861 C 128.472 174.627,123.806 174.023,119.630 173.518 C 100.718 171.236,78.493 167.523,66.618 164.664 L 64.533 164.161 64.509 166.726 M238.333 177.606 C 217.301 178.513,178.982 178.509,170.487 177.599 L 168.148 177.348 168.153 180.619 C 168.161 185.798,167.731 185.400,173.828 185.872 C 180.286 186.372,214.801 186.677,219.630 186.276 C 221.565 186.115,229.148 185.793,236.481 185.559 C 252.833 185.039,252.965 185.026,252.957 183.959 C 252.946 182.396,252.619 182.285,249.074 182.633 C 247.241 182.814,240.949 182.853,235.093 182.722 C 225.536 182.507,224.444 182.542,224.444 183.067 C 224.444 183.533,224.231 183.591,223.400 183.352 C 222.825 183.188,218.283 183.137,213.307 183.240 C 204.191 183.428,180.121 182.540,175.926 181.860 C 174.806 181.678,172.681 181.418,171.204 181.283 C 167.534 180.945,167.701 180.261,171.389 180.524 C 185.652 181.541,203.455 181.972,220.185 181.706 C 228.741 181.571,236.241 181.392,236.852 181.309 C 237.463 181.226,241.255 180.955,245.278 180.707 C 252.315 180.273,252.592 180.226,252.588 179.480 C 252.574 177.471,252.212 177.034,250.605 177.090 C 249.763 177.119,244.241 177.351,238.333 177.606 M161.366 274.742 C 160.392 275.758,160.021 276.556,160.723 276.122 C 161.123 275.875,162.720 273.704,162.502 273.704 C 162.424 273.704,161.913 274.171,161.366 274.742 M250.574 274.545 C 250.674 274.804,251.127 275.243,251.581 275.520 C 252.369 276.000,252.366 275.978,251.510 275.049 C 250.507 273.960,250.309 273.854,250.574 274.545 M254.129 278.240 C 262.287 286.206,277.434 289.931,294.074 288.063 C 300.158 287.380,304.566 286.657,305.039 286.264 C 305.323 286.028,305.556 285.943,305.556 286.075 C 305.556 286.207,306.056 286.057,306.667 285.741 C 307.278 285.425,307.778 285.123,307.778 285.071 C 307.778 285.018,305.569 285.341,302.870 285.789 C 283.542 288.991,268.246 287.354,258.437 281.034 C 257.158 280.210,256.028 279.426,255.926 279.292 C 255.824 279.158,254.907 278.407,253.889 277.623 L 252.037 276.198 254.129 278.240 M157.308 278.694 C 147.102 286.909,131.316 289.332,110.370 285.899 C 105.191 285.050,105.198 285.050,106.190 285.745 C 107.216 286.464,112.602 287.454,118.704 288.046 C 121.416 288.309,129.068 288.368,134.074 288.165 C 142.515 287.822,152.903 283.603,158.499 278.244 C 160.722 276.116,160.324 276.266,157.308 278.694 " stroke="none" fill="#bec1bc" fill-rule="evenodd"></path><path id="path2" d="M332.778 166.302 C 329.111 166.876,323.194 167.845,319.630 168.454 C 313.554 169.493,302.569 171.113,301.604 171.112 C 301.134 171.111,301.526 173.164,302.289 174.698 C 302.511 175.143,302.602 175.849,302.493 176.268 C 302.288 177.051,303.215 181.821,303.667 182.312 C 304.061 182.740,329.819 179.224,339.072 177.480 C 341.837 176.958,342.427 176.726,342.542 176.113 C 342.619 175.706,342.995 174.975,343.378 174.489 C 344.638 172.887,343.917 168.819,342.198 167.832 C 341.635 167.510,340.901 166.782,340.567 166.215 C 340.232 165.649,339.843 165.202,339.701 165.222 C 339.560 165.242,336.444 165.728,332.778 166.302 M262.350 165.834 C 263.046 166.959,265.541 188.245,265.551 193.135 C 265.558 196.325,266.481 195.215,267.243 191.100 C 268.337 185.196,267.894 185.773,271.525 185.523 C 273.266 185.403,274.844 185.213,275.031 185.100 C 275.218 184.986,277.787 184.708,280.741 184.482 C 290.596 183.726,290.267 183.791,290.716 182.504 C 291.186 181.156,291.238 178.641,290.802 178.371 C 290.633 178.267,290.565 177.697,290.652 177.106 C 290.920 175.281,289.447 172.866,288.220 173.120 C 284.938 173.800,277.200 174.405,272.466 174.352 C 266.244 174.283,266.004 174.172,265.148 170.968 C 264.311 167.834,263.617 166.276,262.886 165.885 C 262.472 165.663,262.231 165.640,262.350 165.834 M338.879 169.063 C 339.472 169.777,338.706 173.655,337.912 173.960 C 337.068 174.284,334.040 171.432,334.312 170.570 C 335.229 167.669,337.187 167.023,338.879 169.063 M332.474 172.244 C 332.056 175.775,331.209 176.282,328.850 174.414 C 327.202 173.108,327.185 172.223,328.770 170.094 L 329.665 168.892 331.177 169.663 L 332.688 170.434 332.474 172.244 M324.579 171.929 C 324.998 172.596,324.377 175.761,323.692 176.453 C 323.273 176.876,319.631 174.471,319.630 173.772 C 319.629 173.098,320.318 171.826,321.220 170.836 C 322.052 169.922,323.642 170.439,324.579 171.929 M316.759 172.512 C 317.908 173.514,317.109 177.778,315.773 177.778 C 314.868 177.778,312.593 175.559,312.593 174.677 C 312.593 171.948,314.798 170.802,316.759 172.512 M308.753 172.993 C 310.136 173.848,310.298 174.660,309.571 177.087 C 309.042 178.851,307.979 178.992,306.086 177.549 C 304.566 176.389,304.525 175.930,305.756 173.829 C 306.832 171.994,307.041 171.935,308.753 172.993 M288.130 176.090 C 288.986 177.121,287.917 181.111,286.784 181.111 C 285.512 181.111,283.345 178.537,283.740 177.496 C 284.880 174.498,286.404 174.010,288.130 176.090 M273.416 176.632 L 274.621 177.709 273.910 179.800 C 273.035 182.376,273.130 182.323,271.110 181.354 C 269.013 180.348,268.750 179.140,270.163 177.005 C 271.309 175.272,271.827 175.213,273.416 176.632 M280.324 176.320 C 281.665 177.138,281.783 178.290,280.787 180.833 C 279.974 182.912,275.823 180.620,276.493 178.463 C 277.325 175.786,278.432 175.167,280.324 176.320 " stroke="none" fill="#2b2c2e" fill-rule="evenodd"></path><path id="path3" d="M201.023 116.188 C 201.484 116.276,202.150 116.273,202.504 116.180 C 202.858 116.088,202.481 116.015,201.667 116.019 C 200.852 116.023,200.562 116.099,201.023 116.188 M205.093 116.197 C 205.958 116.275,207.375 116.275,208.241 116.197 C 209.106 116.119,208.398 116.055,206.667 116.055 C 204.935 116.055,204.227 116.119,205.093 116.197 M210.652 116.188 C 211.113 116.276,211.780 116.273,212.134 116.180 C 212.488 116.088,212.111 116.015,211.296 116.019 C 210.481 116.023,210.192 116.099,210.652 116.188 M244.901 162.593 C 244.901 163.306,244.977 163.597,245.070 163.241 C 245.163 162.884,245.163 162.301,245.070 161.944 C 244.977 161.588,244.901 161.880,244.901 162.593 M64.103 169.370 C 64.087 169.751,63.560 170.259,62.870 170.559 C 61.668 171.082,61.668 171.082,62.672 171.097 C 63.717 171.112,64.657 169.993,64.313 169.146 C 64.214 168.903,64.119 169.003,64.103 169.370 M346.012 174.444 C 346.012 175.157,346.088 175.449,346.181 175.093 C 346.274 174.736,346.274 174.153,346.181 173.796 C 346.088 173.440,346.012 173.731,346.012 174.444 M246.394 177.303 C 246.957 177.388,247.790 177.386,248.246 177.298 C 248.701 177.210,248.241 177.140,247.222 177.143 C 246.204 177.146,245.831 177.218,246.394 177.303 M254.074 181.834 C 254.074 182.479,253.942 182.925,253.781 182.826 C 253.620 182.726,253.555 183.216,253.636 183.915 C 253.804 185.347,253.949 185.381,258.094 184.947 L 260.370 184.709 260.370 182.910 L 260.370 181.111 257.808 181.111 C 256.399 181.111,254.982 181.010,254.660 180.886 C 254.202 180.710,254.074 180.917,254.074 181.834 M145.656 182.963 C 145.656 183.880,145.729 184.255,145.817 183.796 C 145.905 183.338,145.905 182.588,145.817 182.130 C 145.729 181.671,145.656 182.046,145.656 182.963 M171.938 229.259 C 171.938 229.972,172.014 230.264,172.107 229.907 C 172.200 229.551,172.200 228.968,172.107 228.611 C 172.014 228.255,171.938 228.546,171.938 229.259 M171.938 237.407 C 171.938 238.120,172.014 238.412,172.107 238.056 C 172.200 237.699,172.200 237.116,172.107 236.759 C 172.014 236.403,171.938 236.694,171.938 237.407 M240.456 237.407 C 240.456 238.120,240.533 238.412,240.626 238.056 C 240.719 237.699,240.719 237.116,240.626 236.759 C 240.533 236.403,240.456 236.694,240.456 237.407 M101.197 250.370 C 101.197 251.083,101.273 251.375,101.366 251.019 C 101.460 250.662,101.460 250.079,101.366 249.722 C 101.273 249.366,101.197 249.657,101.197 250.370 M311.197 250.370 C 311.197 251.083,311.273 251.375,311.366 251.019 C 311.460 250.662,311.460 250.079,311.366 249.722 C 311.273 249.366,311.197 249.657,311.197 250.370 M100.856 262.407 C 100.858 263.630,100.927 264.085,101.009 263.419 C 101.092 262.754,101.090 261.754,101.005 261.197 C 100.921 260.641,100.853 261.185,100.856 262.407 M311.592 262.593 C 311.592 263.713,311.662 264.171,311.747 263.611 C 311.832 263.051,311.832 262.134,311.747 261.574 C 311.662 261.014,311.592 261.472,311.592 262.593 M123.986 287.299 C 124.447 287.388,125.113 287.384,125.467 287.292 C 125.821 287.199,125.444 287.126,124.630 287.130 C 123.815 287.135,123.525 287.210,123.986 287.299 M129.912 287.299 C 130.372 287.388,131.039 287.384,131.393 287.292 C 131.747 287.199,131.370 287.126,130.556 287.130 C 129.741 287.135,129.451 287.210,129.912 287.299 M281.204 287.292 C 281.560 287.386,282.144 287.386,282.500 287.292 C 282.856 287.199,282.565 287.123,281.852 287.123 C 281.139 287.123,280.847 287.199,281.204 287.292 M287.319 287.299 C 287.780 287.388,288.447 287.384,288.801 287.292 C 289.155 287.199,288.778 287.126,287.963 287.130 C 287.148 287.135,286.858 287.210,287.319 287.299 " stroke="none" fill="#5fa6f6" fill-rule="evenodd"></path><path id="path4" d="M335.663 168.611 C 334.208 170.200,334.229 171.044,335.761 172.614 C 337.310 174.200,338.519 174.113,338.519 172.416 C 338.519 171.926,338.685 171.422,338.889 171.296 C 339.721 170.782,339.262 169.250,338.056 168.514 C 336.560 167.602,336.587 167.601,335.663 168.611 M338.148 171.138 C 338.148 172.837,337.901 173.061,336.813 172.348 C 335.953 171.784,335.902 171.289,336.504 169.343 C 336.828 168.295,338.148 169.736,338.148 171.138 M328.611 170.488 C 327.463 172.175,327.564 173.069,329.054 174.377 C 330.755 175.871,331.654 175.621,332.187 173.506 C 332.785 171.130,332.710 170.802,331.389 169.996 C 329.790 169.021,329.586 169.057,328.611 170.488 M320.929 171.397 C 319.617 173.328,319.730 174.157,321.472 175.363 C 323.304 176.634,323.858 176.435,324.391 174.317 C 324.911 172.254,324.718 171.716,323.119 170.772 L 321.859 170.029 320.929 171.397 M331.481 172.660 C 331.481 174.333,331.168 174.575,330.112 173.720 C 329.339 173.094,329.294 172.612,329.839 170.825 C 330.166 169.754,331.481 171.223,331.481 172.660 M313.746 172.438 C 312.348 174.215,312.383 174.780,313.994 176.390 C 315.637 178.033,316.093 177.984,316.890 176.078 C 317.708 174.119,317.542 173.243,316.178 172.315 C 314.655 171.278,314.659 171.277,313.746 172.438 M322.987 171.865 C 323.718 172.256,324.049 174.928,323.416 175.320 C 322.635 175.802,321.578 174.243,321.754 172.870 C 321.952 171.334,321.969 171.320,322.987 171.865 M306.130 173.461 C 304.506 175.591,306.020 178.908,308.408 178.453 C 309.327 178.277,310.252 174.639,309.584 173.834 C 308.287 172.271,307.132 172.147,306.130 173.461 M316.296 175.089 C 316.296 176.806,316.117 176.944,314.946 176.124 C 314.209 175.608,314.126 174.735,314.651 173.047 C 315.016 171.877,316.296 173.467,316.296 175.089 M308.444 174.148 C 308.931 174.635,309.058 177.259,308.609 177.537 C 307.824 178.022,306.701 176.370,306.916 175.046 C 307.140 173.669,307.660 173.364,308.444 174.148 M284.513 176.254 C 283.420 178.198,283.479 178.506,285.224 179.955 C 286.922 181.365,287.337 181.217,288.100 178.926 C 288.735 177.017,288.621 176.555,287.289 175.648 C 285.654 174.535,285.454 174.578,284.513 176.254 M270.501 176.762 C 268.812 179.312,269.011 180.318,271.405 181.318 C 273.036 181.999,272.864 182.065,273.514 180.510 C 274.435 178.306,274.254 177.209,272.827 176.327 C 271.275 175.368,271.445 175.336,270.501 176.762 M277.500 176.785 C 276.393 178.410,276.449 179.319,277.741 180.702 C 279.420 182.499,280.232 182.256,280.964 179.738 L 281.579 177.623 280.340 176.589 C 278.768 175.276,278.515 175.294,277.500 176.785 M287.407 178.422 C 287.407 180.188,287.359 180.228,286.151 179.436 C 285.324 178.895,285.224 178.109,285.762 176.381 C 286.127 175.211,287.407 176.800,287.407 178.422 M290.827 177.407 C 290.827 178.120,290.903 178.412,290.996 178.056 C 291.089 177.699,291.089 177.116,290.996 176.759 C 290.903 176.403,290.827 176.694,290.827 177.407 M272.445 177.320 C 273.221 177.838,273.393 180.766,272.646 180.729 C 271.681 180.681,271.080 179.616,271.314 178.368 C 271.570 177.002,271.737 176.848,272.445 177.320 M279.926 177.481 C 280.483 178.039,280.509 180.241,279.963 180.579 C 279.203 181.048,278.206 179.544,278.412 178.241 C 278.610 176.992,279.160 176.716,279.926 177.481 " stroke="none" fill="#0444bf" fill-rule="evenodd"></path><path id="path5" d="M195.278 86.932 C 195.838 87.017,196.755 87.017,197.315 86.932 C 197.875 86.847,197.417 86.778,196.296 86.778 C 195.176 86.778,194.718 86.847,195.278 86.932 M215.278 86.932 C 215.838 87.017,216.755 87.017,217.315 86.932 C 217.875 86.847,217.417 86.778,216.296 86.778 C 215.176 86.778,214.718 86.847,215.278 86.932 M191.204 87.292 C 191.560 87.386,192.144 87.386,192.500 87.292 C 192.856 87.199,192.565 87.123,191.852 87.123 C 191.139 87.123,190.847 87.199,191.204 87.292 M247.068 94.216 C 247.445 94.563,253.333 97.396,253.333 97.230 C 253.333 97.024,247.571 94.074,247.169 94.074 C 247.028 94.074,246.983 94.138,247.068 94.216 M160.278 96.508 C 158.893 97.259,158.977 97.572,160.370 96.852 C 160.981 96.536,161.481 96.198,161.481 96.102 C 161.481 95.863,161.442 95.877,160.278 96.508 M150.833 102.615 C 149.764 103.436,148.889 104.189,148.889 104.288 C 148.889 104.387,149.806 103.776,150.926 102.930 C 152.695 101.595,153.232 101.094,152.870 101.117 C 152.819 101.120,151.903 101.795,150.833 102.615 M259.630 101.229 C 259.630 101.319,260.588 102.112,261.759 102.991 C 262.931 103.870,263.688 104.340,263.443 104.036 C 262.940 103.412,259.630 100.976,259.630 101.229 M264.074 104.560 C 264.074 104.624,264.616 105.166,265.278 105.764 L 266.481 106.852 265.394 105.648 C 264.380 104.526,264.074 104.274,264.074 104.560 M142.215 110.278 L 138.704 113.889 142.315 110.378 C 145.669 107.117,146.094 106.667,145.826 106.667 C 145.771 106.667,144.146 108.292,142.215 110.278 M270.185 110.370 C 272.010 112.204,273.586 113.704,273.688 113.704 C 273.790 113.704,272.380 112.204,270.556 110.370 C 268.731 108.537,267.154 107.037,267.052 107.037 C 266.951 107.037,268.360 108.537,270.185 110.370 M137.569 115.278 L 136.481 116.481 137.685 115.394 C 138.807 114.380,139.059 114.074,138.773 114.074 C 138.709 114.074,138.168 114.616,137.569 115.278 M273.704 114.190 C 273.704 114.254,274.245 114.795,274.907 115.394 L 276.111 116.481 275.023 115.278 C 274.009 114.156,273.704 113.904,273.704 114.190 M290.767 140.926 C 290.767 141.130,291.005 141.713,291.296 142.222 C 291.587 142.731,291.826 142.981,291.826 142.778 C 291.826 142.574,291.587 141.991,291.296 141.481 C 291.005 140.972,290.767 140.722,290.767 140.926 M167.879 154.815 C 167.879 155.731,167.951 156.106,168.039 155.648 C 168.127 155.190,168.127 154.440,168.039 153.981 C 167.951 153.523,167.879 153.898,167.879 154.815 M244.545 154.815 C 244.545 155.731,244.618 156.106,244.706 155.648 C 244.794 155.190,244.794 154.440,244.706 153.981 C 244.618 153.523,244.545 153.898,244.545 154.815 M52.775 155.112 C 48.336 157.198,46.980 163.525,48.928 173.064 C 49.603 176.366,49.668 175.382,49.072 170.904 C 47.723 160.767,48.988 156.452,53.677 155.192 C 58.178 153.982,61.527 156.239,63.348 161.710 C 63.789 163.036,64.225 164.047,64.316 163.956 C 64.576 163.695,62.982 159.207,62.145 157.845 C 60.359 154.938,55.907 153.639,52.775 155.112 M55.741 161.852 C 56.148 162.027,56.731 162.170,57.037 162.170 C 57.387 162.170,57.319 162.052,56.852 161.852 C 56.444 161.677,55.861 161.534,55.556 161.534 C 55.205 161.534,55.274 161.651,55.741 161.852 M341.019 164.706 C 341.477 164.794,342.227 164.794,342.685 164.706 C 343.144 164.618,342.769 164.545,341.852 164.545 C 340.935 164.545,340.560 164.618,341.019 164.706 M344.332 166.106 C 344.670 166.817,345.013 167.332,345.094 167.252 C 345.263 167.083,344.139 164.815,343.885 164.815 C 343.792 164.815,343.993 165.396,344.332 166.106 M260.379 166.500 C 260.384 167.101,260.539 168.259,260.723 169.074 C 261.083 170.665,262.771 185.302,263.157 190.185 C 263.456 193.952,263.667 194.788,264.117 193.985 C 264.621 193.084,262.811 175.858,261.421 168.333 C 260.963 165.849,260.365 164.798,260.379 166.500 M135.553 169.962 C 132.990 170.780,129.683 173.881,130.501 174.699 C 130.633 174.831,130.741 174.750,130.741 174.519 C 130.741 172.694,134.424 170.370,137.317 170.370 C 140.709 170.370,142.846 171.938,144.077 175.329 C 144.290 175.918,144.554 176.311,144.662 176.203 C 145.003 175.861,143.705 173.191,142.666 172.097 C 140.881 170.218,137.721 169.269,135.553 169.962 M167.893 171.667 C 167.895 172.889,167.964 173.344,168.046 172.679 C 168.129 172.013,168.127 171.013,168.042 170.456 C 167.958 169.900,167.890 170.444,167.893 171.667 M244.559 171.667 C 244.561 172.889,244.630 173.344,244.713 172.679 C 244.795 172.013,244.794 171.013,244.709 170.456 C 244.625 169.900,244.557 170.444,244.559 171.667 M57.433 171.446 C 57.011 172.038,56.669 172.663,56.673 172.835 C 56.676 173.007,57.038 172.588,57.476 171.903 C 58.297 170.620,59.464 170.456,62.037 171.261 C 62.444 171.388,62.278 171.248,61.667 170.948 C 59.808 170.037,58.310 170.214,57.433 171.446 M346.027 171.852 C 346.027 172.769,346.099 173.144,346.187 172.685 C 346.276 172.227,346.276 171.477,346.187 171.019 C 346.099 170.560,346.027 170.935,346.027 171.852 M277.593 171.434 C 276.981 171.813,276.066 172.604,275.559 173.191 C 274.669 174.221,274.683 174.218,275.929 173.099 C 276.640 172.460,277.722 171.675,278.333 171.354 C 278.944 171.033,279.278 170.764,279.074 170.757 C 278.870 170.750,278.204 171.054,277.593 171.434 M287.037 171.819 C 287.546 172.235,288.130 172.577,288.333 172.579 C 288.730 172.581,288.060 172.069,286.852 171.444 C 286.360 171.190,286.422 171.316,287.037 171.819 M55.967 174.486 C 55.739 175.140,55.617 175.740,55.696 175.820 C 55.775 175.899,56.027 175.428,56.255 174.774 C 56.483 174.119,56.605 173.519,56.526 173.440 C 56.447 173.360,56.195 173.831,55.967 174.486 M49.835 176.481 C 50.595 180.502,52.915 181.284,54.781 178.148 C 55.972 176.147,55.696 175.930,54.453 177.890 C 52.824 180.458,51.398 180.002,50.051 176.481 L 49.625 175.370 49.835 176.481 M252.634 180.946 C 252.770 182.689,252.982 184.217,253.107 184.341 C 253.401 184.636,253.403 179.131,253.109 178.364 C 252.585 176.999,252.404 177.984,252.634 180.946 M130.232 185.741 C 131.007 192.535,133.073 196.414,135.045 194.778 C 135.652 194.273,137.173 191.494,136.959 191.280 C 136.888 191.209,136.436 191.892,135.956 192.798 C 134.146 196.209,131.978 194.301,131.076 188.502 C 130.544 185.086,129.927 183.067,130.232 185.741 M289.036 185.281 C 288.635 185.741,287.814 186.504,287.210 186.975 C 285.983 187.933,286.666 187.671,288.241 186.580 C 288.802 186.192,289.433 185.553,289.643 185.159 C 290.151 184.211,289.927 184.256,289.036 185.281 M139.316 186.073 C 138.495 186.972,137.608 188.665,137.259 190.000 C 137.125 190.509,137.493 189.926,138.075 188.704 C 139.557 185.596,139.875 185.392,142.358 185.947 C 144.303 186.382,145.556 186.270,145.555 185.660 C 145.554 184.917,140.037 185.283,139.316 186.073 M275.927 186.053 C 276.436 186.631,277.185 187.277,277.593 187.487 C 278.372 187.889,278.350 187.864,276.298 186.108 L 275.003 185.000 275.927 186.053 M246.394 186.192 C 246.957 186.277,247.790 186.275,248.246 186.187 C 248.701 186.099,248.241 186.029,247.222 186.032 C 246.204 186.035,245.831 186.107,246.394 186.192 M168.860 187.686 C 169.037 188.964,169.062 188.990,169.185 188.010 C 169.257 187.425,169.171 186.801,168.992 186.622 C 168.806 186.436,168.749 186.889,168.860 187.686 M171.197 212.963 C 171.197 213.676,171.273 213.968,171.366 213.611 C 171.460 213.255,171.460 212.671,171.366 212.315 C 171.273 211.958,171.197 212.250,171.197 212.963 M171.575 218.333 C 171.579 219.148,171.655 219.438,171.743 218.977 C 171.832 218.516,171.829 217.850,171.736 217.496 C 171.643 217.142,171.571 217.519,171.575 218.333 M240.834 218.333 C 240.838 219.148,240.914 219.438,241.003 218.977 C 241.091 218.516,241.088 217.850,240.995 217.496 C 240.903 217.142,240.830 217.519,240.834 218.333 M171.973 225.741 C 171.975 227.167,172.042 227.705,172.122 226.936 C 172.202 226.168,172.201 225.001,172.119 224.344 C 172.037 223.686,171.972 224.315,171.973 225.741 M240.476 225.000 C 240.479 226.019,240.551 226.391,240.636 225.828 C 240.721 225.265,240.719 224.432,240.631 223.976 C 240.543 223.521,240.474 223.981,240.476 225.000 M102.308 229.259 C 102.308 229.972,102.384 230.264,102.478 229.907 C 102.571 229.551,102.571 228.968,102.478 228.611 C 102.384 228.255,102.308 228.546,102.308 229.259 M310.086 229.259 C 310.086 229.972,310.162 230.264,310.255 229.907 C 310.348 229.551,310.348 228.968,310.255 228.611 C 310.162 228.255,310.086 228.546,310.086 229.259 M101.945 234.259 C 101.949 235.074,102.025 235.364,102.114 234.903 C 102.202 234.442,102.199 233.776,102.106 233.422 C 102.014 233.068,101.941 233.444,101.945 234.259 M310.456 234.074 C 310.456 234.787,310.533 235.079,310.626 234.722 C 310.719 234.366,310.719 233.782,310.626 233.426 C 310.533 233.069,310.456 233.361,310.456 234.074 M240.476 240.185 C 240.479 241.204,240.551 241.576,240.636 241.013 C 240.721 240.450,240.719 239.617,240.631 239.162 C 240.543 238.706,240.474 239.167,240.476 240.185 M101.575 240.185 C 101.579 241.000,101.655 241.290,101.743 240.829 C 101.832 240.368,101.829 239.702,101.736 239.348 C 101.643 238.993,101.571 239.370,101.575 240.185 M310.847 240.556 C 310.849 241.574,310.921 241.947,311.007 241.384 C 311.092 240.821,311.089 239.987,311.001 239.532 C 310.914 239.076,310.844 239.537,310.847 240.556 M171.945 240.556 C 171.949 241.370,172.025 241.660,172.114 241.199 C 172.202 240.739,172.199 240.072,172.106 239.718 C 172.014 239.364,171.941 239.741,171.945 240.556 M101.212 247.778 C 101.212 248.694,101.284 249.069,101.372 248.611 C 101.461 248.153,101.461 247.403,101.372 246.944 C 101.284 246.486,101.212 246.861,101.212 247.778 M311.212 247.778 C 311.212 248.694,311.284 249.069,311.372 248.611 C 311.461 248.153,311.461 247.403,311.372 246.944 C 311.284 246.486,311.212 246.861,311.212 247.778 M100.862 257.963 C 100.864 259.389,100.931 259.927,101.011 259.158 C 101.091 258.390,101.090 257.223,101.008 256.566 C 100.926 255.908,100.861 256.537,100.862 257.963 M311.606 258.148 C 311.606 259.676,311.671 260.301,311.751 259.537 C 311.831 258.773,311.831 257.523,311.751 256.759 C 311.671 255.995,311.606 256.620,311.606 258.148 M100.517 279.074 C 100.517 281.926,100.575 283.044,100.646 281.558 C 100.716 280.072,100.716 277.739,100.645 276.373 C 100.574 275.007,100.516 276.222,100.517 279.074 M311.998 279.074 C 311.999 281.926,312.057 283.044,312.127 281.558 C 312.198 280.072,312.197 277.739,312.126 276.373 C 312.055 275.007,311.997 276.222,311.998 279.074 " stroke="none" fill="#77bcfc" fill-rule="evenodd"></path><path id="path6" d="M55.185 162.031 C 55.185 163.383,59.377 166.226,60.274 165.482 C 60.662 165.160,60.432 164.884,59.179 164.174 C 58.307 163.680,57.051 162.941,56.389 162.533 C 55.727 162.125,55.185 161.899,55.185 162.031 M64.846 167.182 C 65.144 167.461,81.693 171.818,83.889 172.195 C 95.454 174.181,144.937 179.971,145.525 179.407 C 145.930 179.018,144.747 178.835,137.376 178.149 C 109.354 175.541,86.920 172.194,71.408 168.308 C 66.913 167.182,64.383 166.748,64.846 167.182 M277.319 174.336 C 277.780 174.425,278.447 174.421,278.801 174.329 C 279.155 174.236,278.778 174.163,277.963 174.167 C 277.148 174.172,276.858 174.247,277.319 174.336 M168.519 180.678 C 168.519 180.875,169.727 181.147,171.204 181.283 C 172.681 181.418,174.806 181.678,175.926 181.860 C 180.121 182.540,204.191 183.428,213.307 183.240 C 218.283 183.137,222.825 183.188,223.400 183.352 C 224.199 183.582,224.444 183.527,224.444 183.121 C 224.444 182.669,226.348 182.605,237.315 182.684 C 251.334 182.786,252.593 182.669,252.593 181.267 C 252.593 180.104,252.835 180.104,237.407 181.285 C 236.083 181.387,228.167 181.578,219.815 181.711 C 203.466 181.972,185.537 181.532,171.389 180.524 C 169.646 180.400,168.519 180.460,168.519 180.678 M283.986 184.336 C 284.447 184.425,285.113 184.421,285.467 184.329 C 285.821 184.236,285.444 184.163,284.630 184.167 C 283.815 184.172,283.525 184.247,283.986 184.336 M279.171 184.706 C 279.632 184.795,280.298 184.792,280.652 184.699 C 281.007 184.606,280.630 184.534,279.815 184.538 C 279.000 184.542,278.710 184.618,279.171 184.706 " stroke="none" fill="#848484" fill-rule="evenodd"></path><path id="path7" d="M269.722 174.339 C 270.282 174.424,271.199 174.424,271.759 174.339 C 272.319 174.254,271.861 174.185,270.741 174.185 C 269.620 174.185,269.162 174.254,269.722 174.339 M304.858 175.788 C 304.834 176.221,305.106 176.805,305.463 177.084 C 306.027 177.526,306.056 177.520,305.688 177.037 C 305.455 176.731,305.183 176.148,305.083 175.741 C 304.910 175.037,304.899 175.040,304.858 175.788 M312.593 175.301 C 312.593 175.365,313.134 175.906,313.796 176.505 L 315.000 177.593 313.912 176.389 C 312.898 175.267,312.593 175.015,312.593 175.301 M264.538 182.037 C 264.542 182.852,264.618 183.142,264.706 182.681 C 264.795 182.220,264.792 181.553,264.699 181.199 C 264.606 180.845,264.534 181.222,264.538 182.037 M264.901 186.296 C 264.901 187.009,264.977 187.301,265.070 186.944 C 265.163 186.588,265.163 186.005,265.070 185.648 C 264.977 185.292,264.901 185.583,264.901 186.296 M265.310 192.593 C 265.310 194.120,265.375 194.745,265.455 193.981 C 265.535 193.218,265.535 191.968,265.455 191.204 C 265.375 190.440,265.310 191.065,265.310 192.593 " stroke="none" fill="#1e619d" fill-rule="evenodd"></path><path id="path8" d="M178.128 124.722 L 176.852 126.111 178.241 124.835 C 179.005 124.133,179.630 123.508,179.630 123.446 C 179.630 123.163,179.316 123.429,178.128 124.722 M234.074 124.630 C 234.765 125.343,235.414 125.926,235.516 125.926 C 235.618 125.926,235.135 125.343,234.444 124.630 C 233.753 123.917,233.105 123.333,233.003 123.333 C 232.901 123.333,233.383 123.917,234.074 124.630 M55.097 155.077 C 55.558 155.165,56.224 155.162,56.578 155.069 C 56.932 154.977,56.556 154.904,55.741 154.908 C 54.926 154.912,54.636 154.988,55.097 155.077 M59.630 156.042 C 59.630 156.106,60.171 156.647,60.833 157.246 L 62.037 158.333 60.949 157.130 C 59.935 156.008,59.630 155.756,59.630 156.042 M167.513 160.185 C 167.516 161.204,167.588 161.576,167.673 161.013 C 167.758 160.450,167.756 159.617,167.668 159.162 C 167.580 158.706,167.511 159.167,167.513 160.185 M244.908 160.185 C 244.912 161.000,244.988 161.290,245.077 160.829 C 245.165 160.368,245.162 159.702,245.069 159.348 C 244.977 158.993,244.904 159.370,244.908 160.185 M48.633 165.370 C 48.635 166.593,48.705 167.048,48.787 166.382 C 48.869 165.717,48.868 164.717,48.783 164.160 C 48.699 163.603,48.631 164.148,48.633 165.370 M167.508 165.185 C 167.508 166.102,167.581 166.477,167.669 166.019 C 167.757 165.560,167.757 164.810,167.669 164.352 C 167.581 163.894,167.508 164.269,167.508 165.185 M244.921 165.370 C 244.924 166.389,244.995 166.762,245.081 166.199 C 245.166 165.636,245.163 164.802,245.076 164.347 C 244.988 163.891,244.918 164.352,244.921 165.370 M341.932 165.769 C 342.171 166.293,342.804 166.949,343.339 167.225 C 345.624 168.407,346.070 175.226,343.889 175.616 C 343.445 175.695,343.099 176.097,343.024 176.619 C 342.956 177.098,343.040 177.429,343.210 177.354 C 343.379 177.280,344.128 176.983,344.874 176.695 C 346.085 176.227,346.215 176.050,346.093 175.030 C 346.017 174.403,345.875 172.800,345.777 171.470 C 345.485 167.518,344.090 164.833,342.323 164.820 C 341.570 164.815,341.536 164.899,341.932 165.769 M261.050 165.370 C 260.949 165.471,261.084 166.596,261.350 167.870 C 262.807 174.831,264.895 194.444,264.180 194.444 C 263.986 194.444,263.827 194.701,263.827 195.015 C 263.827 195.339,264.081 195.535,264.414 195.468 C 265.615 195.227,264.935 184.229,262.880 170.648 C 262.136 165.733,261.763 164.657,261.050 165.370 M145.525 185.183 C 145.413 185.855,145.068 186.171,144.259 186.343 C 143.189 186.570,143.184 186.581,144.121 186.623 C 145.253 186.674,146.054 185.880,145.834 184.925 C 145.717 184.417,145.644 184.479,145.525 185.183 M132.916 194.940 C 133.195 195.279,133.717 195.556,134.074 195.556 C 134.432 195.556,134.953 195.279,135.232 194.940 C 135.698 194.378,135.670 194.369,134.907 194.844 C 134.193 195.289,133.955 195.289,133.241 194.844 C 132.478 194.369,132.450 194.378,132.916 194.940 M240.502 233.148 C 240.501 234.981,240.563 235.778,240.641 234.919 C 240.719 234.059,240.720 232.559,240.643 231.585 C 240.567 230.612,240.503 231.315,240.502 233.148 M171.981 233.333 C 171.981 235.065,172.045 235.773,172.123 234.907 C 172.201 234.042,172.201 232.625,172.123 231.759 C 172.045 230.894,171.981 231.602,171.981 233.333 M100.834 265.741 C 100.838 266.556,100.914 266.845,101.003 266.385 C 101.091 265.924,101.088 265.257,100.995 264.903 C 100.903 264.549,100.830 264.926,100.834 265.741 M311.567 265.556 C 311.567 266.269,311.644 266.560,311.737 266.204 C 311.830 265.847,311.830 265.264,311.737 264.907 C 311.644 264.551,311.567 264.843,311.567 265.556 " stroke="none" fill="#3ca4fc" fill-rule="evenodd"></path></g></svg>